<svg xmlns="http://www.w3.org/2000/svg" xmlns:xlink="http://www.w3.org/1999/xlink" width="40" zoomAndPan="magnify" viewBox="0 0 30 30.000001" height="40" preserveAspectRatio="xMidYMid meet" version="1.0"><defs><g/><clipPath id="4a3afea78b"><path d="M 0.484375 0 L 29.515625 0 L 29.515625 29.03125 L 0.484375 29.03125 Z M 0.484375 0 " clip-rule="nonzero"/></clipPath><clipPath id="dd6977f9e1"><path d="M 15 0 C 6.984375 0 0.484375 6.5 0.484375 14.515625 C 0.484375 22.53125 6.984375 29.03125 15 29.03125 C 23.015625 29.03125 29.515625 22.53125 29.515625 14.515625 C 29.515625 6.5 23.015625 0 15 0 " clip-rule="nonzero"/></clipPath><clipPath id="59c0186920"><path d="M 0.878906 0.398438 L 29.121094 0.398438 L 29.121094 28.636719 L 0.878906 28.636719 Z M 0.878906 0.398438 " clip-rule="nonzero"/></clipPath><clipPath id="cc8ffae248"><path d="M 15 0.398438 C 7.203125 0.398438 0.878906 6.71875 0.878906 14.515625 C 0.878906 22.3125 7.203125 28.636719 15 28.636719 C 22.796875 28.636719 29.121094 22.3125 29.121094 14.515625 C 29.121094 6.71875 22.796875 0.398438 15 0.398438 " clip-rule="nonzero"/></clipPath><clipPath id="a40e701a0e"><path d="M 2.734375 2.25 L 27.414062 2.25 L 27.414062 26.929688 L 2.734375 26.929688 Z M 2.734375 2.25 " clip-rule="nonzero"/></clipPath><clipPath id="f9fee15adb"><path d="M 28 14 L 28.714844 14 L 28.714844 16 L 28 16 Z M 28 14 " clip-rule="nonzero"/></clipPath><clipPath id="a766f79d68"><path d="M 28 15 L 28.714844 15 L 28.714844 17 L 28 17 Z M 28 15 " clip-rule="nonzero"/></clipPath><clipPath id="72718faa1b"><path d="M 27 17 L 28.714844 17 L 28.714844 18 L 27 18 Z M 27 17 " clip-rule="nonzero"/></clipPath><clipPath id="82bda96aad"><path d="M 27 18 L 28.714844 18 L 28.714844 19 L 27 19 Z M 27 18 " clip-rule="nonzero"/></clipPath><clipPath id="84c08504c7"><path d="M 16 27 L 17 27 L 17 28.230469 L 16 28.230469 Z M 16 27 " clip-rule="nonzero"/></clipPath><clipPath id="430d0a9138"><path d="M 15 27 L 16 27 L 16 28.230469 L 15 28.230469 Z M 15 27 " clip-rule="nonzero"/></clipPath><clipPath id="7db63e03ec"><path d="M 14 27 L 15 27 L 15 28.230469 L 14 28.230469 Z M 14 27 " clip-rule="nonzero"/></clipPath><clipPath id="747c965e47"><path d="M 13 27 L 14 27 L 14 28.230469 L 13 28.230469 Z M 13 27 " clip-rule="nonzero"/></clipPath><clipPath id="225e516ee4"><path d="M 12 27 L 13 27 L 13 28.230469 L 12 28.230469 Z M 12 27 " clip-rule="nonzero"/></clipPath><clipPath id="184097eb4d"><path d="M 1.132812 18 L 3 18 L 3 20 L 1.132812 20 Z M 1.132812 18 " clip-rule="nonzero"/></clipPath><clipPath id="e76dfd0cf2"><path d="M 1.132812 17 L 3 17 L 3 19 L 1.132812 19 Z M 1.132812 17 " clip-rule="nonzero"/></clipPath><clipPath id="2e51898ec9"><path d="M 1.132812 16 L 2 16 L 2 18 L 1.132812 18 Z M 1.132812 16 " clip-rule="nonzero"/></clipPath><clipPath id="7b14311f6e"><path d="M 1.132812 15 L 2 15 L 2 16 L 1.132812 16 Z M 1.132812 15 " clip-rule="nonzero"/></clipPath><clipPath id="170220bb75"><path d="M 1.132812 14 L 2 14 L 2 15 L 1.132812 15 Z M 1.132812 14 " clip-rule="nonzero"/></clipPath><clipPath id="d9b9e590a5"><path d="M 1.132812 13 L 2 13 L 2 14 L 1.132812 14 Z M 1.132812 13 " clip-rule="nonzero"/></clipPath><clipPath id="e814952151"><path d="M 1.132812 12 L 2 12 L 2 13 L 1.132812 13 Z M 1.132812 12 " clip-rule="nonzero"/></clipPath><clipPath id="df2bd00ee2"><path d="M 1.132812 11 L 2 11 L 2 12 L 1.132812 12 Z M 1.132812 11 " clip-rule="nonzero"/></clipPath><clipPath id="4a8092a773"><path d="M 1.132812 10 L 3 10 L 3 11 L 1.132812 11 Z M 1.132812 10 " clip-rule="nonzero"/></clipPath><clipPath id="c699c435ef"><path d="M 11 0.648438 L 13 0.648438 L 13 2 L 11 2 Z M 11 0.648438 " clip-rule="nonzero"/></clipPath><clipPath id="6eee2e2c50"><path d="M 12 0.648438 L 14 0.648438 L 14 2 L 12 2 Z M 12 0.648438 " clip-rule="nonzero"/></clipPath><clipPath id="ef0caf6c0a"><path d="M 13 0.648438 L 15 0.648438 L 15 2 L 13 2 Z M 13 0.648438 " clip-rule="nonzero"/></clipPath><clipPath id="bc8f2010a4"><path d="M 14 0.648438 L 16 0.648438 L 16 2 L 14 2 Z M 14 0.648438 " clip-rule="nonzero"/></clipPath><clipPath id="eb8e17dfc0"><path d="M 15 0.648438 L 17 0.648438 L 17 2 L 15 2 Z M 15 0.648438 " clip-rule="nonzero"/></clipPath><clipPath id="c1acfb14b4"><path d="M 16 0.648438 L 18 0.648438 L 18 2 L 16 2 Z M 16 0.648438 " clip-rule="nonzero"/></clipPath><clipPath id="a498a6f47a"><path d="M 27 9 L 28.714844 9 L 28.714844 11 L 27 11 Z M 27 9 " clip-rule="nonzero"/></clipPath><clipPath id="f22c1480d2"><path d="M 27 10 L 28.714844 10 L 28.714844 12 L 27 12 Z M 27 10 " clip-rule="nonzero"/></clipPath><clipPath id="dbb0cde080"><path d="M 28 11 L 28.714844 11 L 28.714844 13 L 28 13 Z M 28 11 " clip-rule="nonzero"/></clipPath><clipPath id="23727d97fc"><path d="M 28 12 L 28.714844 12 L 28.714844 14 L 28 14 Z M 28 12 " clip-rule="nonzero"/></clipPath><clipPath id="6821d2b7e0"><path d="M 28 13 L 28.714844 13 L 28.714844 15 L 28 15 Z M 28 13 " clip-rule="nonzero"/></clipPath><clipPath id="830e2acf2a"><path d="M 13.269531 8.371094 L 16.542969 8.371094 L 16.542969 9.097656 L 13.269531 9.097656 Z M 13.269531 8.371094 " clip-rule="nonzero"/></clipPath><clipPath id="b5194bb079"><path d="M 9 5 L 16 5 L 16 10 L 9 10 Z M 9 5 " clip-rule="nonzero"/></clipPath><clipPath id="42dfca16d1"><path d="M 12.0625 4.6875 L 15.882812 7.476562 L 13.792969 10.34375 L 9.96875 7.550781 Z M 12.0625 4.6875 " clip-rule="nonzero"/></clipPath><clipPath id="f2365bcd4e"><path d="M 13.019531 5.382812 L 15.882812 7.476562 L 12.835938 9.644531 L 9.96875 7.550781 L 13.019531 5.382812 " clip-rule="nonzero"/></clipPath><clipPath id="a6dca52fdc"><path d="M 10 6 L 21 6 L 21 14 L 10 14 Z M 10 6 " clip-rule="nonzero"/></clipPath><clipPath id="55fb6f1c35"><path d="M 14.4375 5.601562 L 20.140625 9.769531 L 16.632812 14.570312 L 10.929688 10.40625 Z M 14.4375 5.601562 " clip-rule="nonzero"/></clipPath><clipPath id="13ee355528"><path d="M 16.039062 6.773438 L 20.078125 9.722656 L 14.96875 13.355469 L 10.929688 10.40625 L 16.039062 6.773438 " clip-rule="nonzero"/></clipPath><clipPath id="f2ab485c3a"><path d="M 12.925781 7.074219 L 16.894531 7.074219 L 16.894531 7.953125 L 12.925781 7.953125 Z M 12.925781 7.074219 " clip-rule="nonzero"/></clipPath><clipPath id="11bc64432c"><path d="M 13 5 L 21 5 L 21 10 L 13 10 Z M 13 5 " clip-rule="nonzero"/></clipPath><clipPath id="ede2d5e979"><path d="M 15.804688 4.6875 L 20.078125 7.804688 L 17.933594 10.742188 L 13.660156 7.621094 Z M 15.804688 4.6875 " clip-rule="nonzero"/></clipPath><clipPath id="f947d3b449"><path d="M 16.875 5.464844 L 20.078125 7.804688 L 16.914062 9.894531 L 13.710938 7.554688 L 16.875 5.464844 " clip-rule="nonzero"/></clipPath><clipPath id="84591125b6"><path d="M 14.476562 7.953125 L 15.34375 7.953125 L 15.34375 10.417969 L 14.476562 10.417969 Z M 14.476562 7.953125 " clip-rule="nonzero"/></clipPath><clipPath id="620d3c4c1f"><path d="M 14.109375 7.058594 L 16.894531 7.058594 L 16.894531 7.953125 L 14.109375 7.953125 Z M 14.109375 7.058594 " clip-rule="nonzero"/></clipPath><clipPath id="cd628643b5"><path d="M 14.859375 7.953125 L 16.894531 7.953125 L 16.894531 7.074219 L 14.859375 7.074219 L 14.183594 7.515625 L 14.859375 7.953125 " clip-rule="nonzero"/></clipPath></defs><g clip-path="url(#4a3afea78b)"><g clip-path="url(#dd6977f9e1)"><path fill="#ffde59" d="M 0.484375 0 L 29.515625 0 L 29.515625 29.03125 L 0.484375 29.03125 Z M 0.484375 0 " fill-opacity="1" fill-rule="nonzero"/></g></g><g clip-path="url(#59c0186920)"><g clip-path="url(#cc8ffae248)"><path fill="#000000" d="M 0.878906 0.398438 L 29.121094 0.398438 L 29.121094 28.636719 L 0.878906 28.636719 Z M 0.878906 0.398438 " fill-opacity="1" fill-rule="nonzero"/></g></g><g clip-path="url(#a40e701a0e)"><path fill="#ffde59" d="M 15.074219 26.929688 C 8.273438 26.929688 2.734375 21.390625 2.734375 14.589844 C 2.734375 7.789062 8.273438 2.25 15.074219 2.25 C 21.875 2.25 27.414062 7.789062 27.414062 14.589844 C 27.414062 21.390625 21.875 26.929688 15.074219 26.929688 Z M 15.074219 2.433594 C 8.371094 2.433594 2.917969 7.886719 2.917969 14.589844 C 2.917969 21.292969 8.371094 26.746094 15.074219 26.746094 C 21.777344 26.746094 27.230469 21.292969 27.230469 14.589844 C 27.230469 7.886719 21.777344 2.433594 15.074219 2.433594 Z M 15.074219 2.433594 " fill-opacity="1" fill-rule="nonzero"/></g><g clip-path="url(#f9fee15adb)"><path fill="#ffde59" d="M 28.449219 14.960938 C 28.378906 14.957031 28.3125 14.984375 28.265625 15.027344 C 28.21875 15.070312 28.1875 15.132812 28.179688 15.203125 C 28.171875 15.34375 28.277344 15.464844 28.417969 15.476562 C 28.558594 15.488281 28.683594 15.378906 28.695312 15.234375 C 28.703125 15.160156 28.675781 15.09375 28.628906 15.042969 C 28.582031 14.996094 28.519531 14.964844 28.449219 14.960938 Z M 28.449219 14.960938 " fill-opacity="1" fill-rule="nonzero"/></g><g clip-path="url(#a766f79d68)"><path fill="#ffde59" d="M 28.371094 15.996094 C 28.226562 15.980469 28.097656 16.078125 28.082031 16.21875 C 28.0625 16.355469 28.164062 16.484375 28.304688 16.507812 C 28.445312 16.53125 28.574219 16.429688 28.59375 16.285156 C 28.613281 16.140625 28.511719 16.007812 28.371094 15.996094 Z M 28.371094 15.996094 " fill-opacity="1" fill-rule="nonzero"/></g><g clip-path="url(#72718faa1b)"><path fill="#ffde59" d="M 28.214844 17.019531 C 28.144531 17.003906 28.074219 17.023438 28.019531 17.058594 C 27.96875 17.09375 27.925781 17.152344 27.910156 17.21875 C 27.878906 17.355469 27.964844 17.492188 28.105469 17.527344 C 28.242188 17.558594 28.382812 17.46875 28.414062 17.328125 C 28.433594 17.253906 28.417969 17.183594 28.378906 17.128906 C 28.34375 17.074219 28.285156 17.03125 28.214844 17.019531 Z M 28.214844 17.019531 " fill-opacity="1" fill-rule="nonzero"/></g><g clip-path="url(#82bda96aad)"><path fill="#ffde59" d="M 27.976562 18.027344 C 27.839844 17.992188 27.699219 18.070312 27.660156 18.207031 C 27.640625 18.273438 27.652344 18.34375 27.683594 18.402344 C 27.714844 18.457031 27.765625 18.503906 27.832031 18.527344 C 27.902344 18.546875 27.972656 18.539062 28.03125 18.507812 C 28.089844 18.476562 28.132812 18.421875 28.15625 18.351562 C 28.195312 18.210938 28.117188 18.066406 27.976562 18.027344 Z M 27.976562 18.027344 " fill-opacity="1" fill-rule="nonzero"/></g><path fill="#ffde59" d="M 27.667969 19.019531 C 27.601562 18.992188 27.53125 19 27.472656 19.027344 C 27.410156 19.054688 27.359375 19.101562 27.335938 19.167969 C 27.28125 19.296875 27.347656 19.449219 27.480469 19.5 C 27.613281 19.554688 27.761719 19.488281 27.816406 19.351562 C 27.84375 19.285156 27.839844 19.210938 27.8125 19.152344 C 27.785156 19.089844 27.734375 19.042969 27.667969 19.019531 Z M 27.667969 19.019531 " fill-opacity="1" fill-rule="nonzero"/><path fill="#ffde59" d="M 27.277344 19.976562 C 27.148438 19.921875 26.996094 19.976562 26.9375 20.105469 C 26.921875 20.136719 26.914062 20.171875 26.914062 20.203125 C 26.914062 20.238281 26.917969 20.269531 26.925781 20.300781 C 26.949219 20.363281 26.992188 20.417969 27.054688 20.449219 C 27.121094 20.480469 27.191406 20.480469 27.253906 20.460938 C 27.285156 20.449219 27.316406 20.433594 27.34375 20.410156 C 27.367188 20.386719 27.386719 20.359375 27.402344 20.324219 C 27.464844 20.191406 27.40625 20.035156 27.277344 19.976562 Z M 27.277344 19.976562 " fill-opacity="1" fill-rule="nonzero"/><path fill="#ffde59" d="M 26.820312 20.910156 C 26.695312 20.839844 26.535156 20.886719 26.464844 21.007812 C 26.394531 21.128906 26.4375 21.285156 26.5625 21.359375 C 26.683594 21.433594 26.839844 21.386719 26.914062 21.261719 C 26.988281 21.136719 26.945312 20.976562 26.820312 20.910156 Z M 26.820312 20.910156 " fill-opacity="1" fill-rule="nonzero"/><path fill="#ffde59" d="M 26.285156 21.796875 C 26.164062 21.722656 26.007812 21.753906 25.929688 21.871094 C 25.851562 21.984375 25.878906 22.144531 25.996094 22.226562 C 26.109375 22.308594 26.273438 22.28125 26.359375 22.160156 C 26.4375 22.039062 26.40625 21.875 26.285156 21.796875 Z M 26.285156 21.796875 " fill-opacity="1" fill-rule="nonzero"/><path fill="#ffde59" d="M 25.6875 22.648438 C 25.574219 22.558594 25.414062 22.578125 25.328125 22.691406 C 25.242188 22.800781 25.257812 22.964844 25.367188 23.054688 C 25.480469 23.144531 25.640625 23.125 25.730469 23.011719 C 25.820312 22.894531 25.804688 22.734375 25.6875 22.648438 Z M 25.6875 22.648438 " fill-opacity="1" fill-rule="nonzero"/><path fill="#ffde59" d="M 24.664062 23.460938 C 24.570312 23.5625 24.574219 23.726562 24.675781 23.824219 C 24.777344 23.925781 24.941406 23.917969 25.042969 23.8125 C 25.148438 23.710938 25.136719 23.539062 25.03125 23.445312 C 24.921875 23.351562 24.765625 23.363281 24.664062 23.460938 Z M 24.664062 23.460938 " fill-opacity="1" fill-rule="nonzero"/><path fill="#ffde59" d="M 23.945312 24.183594 C 23.847656 24.28125 23.835938 24.4375 23.929688 24.546875 C 24.023438 24.652344 24.191406 24.664062 24.296875 24.558594 C 24.402344 24.460938 24.410156 24.292969 24.308594 24.191406 C 24.210938 24.089844 24.046875 24.085938 23.945312 24.183594 Z M 23.945312 24.183594 " fill-opacity="1" fill-rule="nonzero"/><path fill="#ffde59" d="M 23.175781 24.84375 C 23.0625 24.929688 23.042969 25.09375 23.128906 25.207031 C 23.214844 25.320312 23.378906 25.335938 23.496094 25.246094 C 23.609375 25.15625 23.628906 24.996094 23.539062 24.886719 C 23.445312 24.777344 23.285156 24.757812 23.175781 24.84375 Z M 23.175781 24.84375 " fill-opacity="1" fill-rule="nonzero"/><path fill="#ffde59" d="M 22.355469 25.449219 C 22.238281 25.523438 22.203125 25.683594 22.28125 25.800781 C 22.359375 25.921875 22.523438 25.957031 22.644531 25.875 C 22.765625 25.789062 22.792969 25.628906 22.710938 25.511719 C 22.628906 25.394531 22.46875 25.367188 22.355469 25.449219 Z M 22.355469 25.449219 " fill-opacity="1" fill-rule="nonzero"/><path fill="#ffde59" d="M 21.488281 25.980469 C 21.367188 26.050781 21.324219 26.210938 21.394531 26.335938 C 21.460938 26.460938 21.617188 26.503906 21.746094 26.429688 C 21.871094 26.359375 21.914062 26.199219 21.84375 26.078125 C 21.769531 25.953125 21.613281 25.910156 21.488281 25.980469 Z M 21.488281 25.980469 " fill-opacity="1" fill-rule="nonzero"/><path fill="#ffde59" d="M 20.785156 26.441406 C 20.753906 26.433594 20.71875 26.429688 20.6875 26.429688 C 20.652344 26.429688 20.621094 26.4375 20.589844 26.453125 C 20.460938 26.511719 20.402344 26.664062 20.460938 26.792969 C 20.519531 26.921875 20.675781 26.980469 20.808594 26.917969 C 20.839844 26.90625 20.871094 26.882812 20.894531 26.859375 C 20.914062 26.832031 20.933594 26.800781 20.941406 26.769531 C 20.964844 26.707031 20.960938 26.636719 20.929688 26.574219 C 20.898438 26.507812 20.84375 26.464844 20.785156 26.441406 Z M 20.785156 26.441406 " fill-opacity="1" fill-rule="nonzero"/><path fill="#ffde59" d="M 19.652344 26.851562 C 19.585938 26.875 19.539062 26.925781 19.511719 26.988281 C 19.484375 27.046875 19.476562 27.117188 19.503906 27.183594 C 19.527344 27.25 19.574219 27.300781 19.636719 27.332031 C 19.695312 27.359375 19.769531 27.359375 19.835938 27.332031 C 19.972656 27.28125 20.039062 27.128906 19.984375 26.996094 C 19.933594 26.863281 19.78125 26.800781 19.652344 26.851562 Z M 19.652344 26.851562 " fill-opacity="1" fill-rule="nonzero"/><path fill="#ffde59" d="M 18.882812 27.199219 C 18.824219 27.167969 18.757812 27.15625 18.6875 27.175781 C 18.554688 27.214844 18.476562 27.355469 18.511719 27.492188 C 18.550781 27.632812 18.695312 27.710938 18.835938 27.671875 C 18.90625 27.648438 18.960938 27.605469 18.992188 27.546875 C 19.023438 27.488281 19.03125 27.417969 19.011719 27.347656 C 18.988281 27.28125 18.941406 27.230469 18.882812 27.199219 Z M 18.882812 27.199219 " fill-opacity="1" fill-rule="nonzero"/><path fill="#ffde59" d="M 17.703125 27.425781 C 17.636719 27.441406 17.578125 27.484375 17.542969 27.539062 C 17.507812 27.589844 17.488281 27.660156 17.503906 27.730469 C 17.515625 27.800781 17.558594 27.859375 17.613281 27.894531 C 17.671875 27.933594 17.742188 27.949219 17.8125 27.929688 C 17.953125 27.898438 18.042969 27.757812 18.011719 27.621094 C 17.976562 27.480469 17.839844 27.394531 17.703125 27.425781 Z M 17.703125 27.425781 " fill-opacity="1" fill-rule="nonzero"/><g clip-path="url(#84c08504c7)"><path fill="#ffde59" d="M 16.699219 27.597656 C 16.5625 27.617188 16.460938 27.746094 16.476562 27.886719 C 16.492188 28.027344 16.625 28.128906 16.769531 28.109375 C 16.914062 28.089844 17.015625 27.960938 16.992188 27.820312 C 16.96875 27.679688 16.839844 27.582031 16.699219 27.597656 Z M 16.699219 27.597656 " fill-opacity="1" fill-rule="nonzero"/></g><g clip-path="url(#430d0a9138)"><path fill="#ffde59" d="M 15.6875 27.695312 C 15.617188 27.703125 15.554688 27.734375 15.511719 27.78125 C 15.46875 27.828125 15.441406 27.894531 15.445312 27.964844 C 15.445312 28.035156 15.476562 28.101562 15.527344 28.144531 C 15.578125 28.191406 15.644531 28.21875 15.71875 28.210938 C 15.863281 28.199219 15.972656 28.078125 15.960938 27.933594 C 15.949219 27.792969 15.828125 27.6875 15.6875 27.695312 Z M 15.6875 27.695312 " fill-opacity="1" fill-rule="nonzero"/></g><g clip-path="url(#7db63e03ec)"><path fill="#ffde59" d="M 14.671875 27.714844 C 14.53125 27.710938 14.414062 27.824219 14.40625 27.964844 C 14.402344 28.105469 14.515625 28.226562 14.660156 28.230469 C 14.808594 28.234375 14.925781 28.121094 14.925781 27.976562 C 14.925781 27.835938 14.8125 27.71875 14.671875 27.714844 Z M 14.671875 27.714844 " fill-opacity="1" fill-rule="nonzero"/></g><g clip-path="url(#747c965e47)"><path fill="#ffde59" d="M 13.65625 27.65625 C 13.585938 27.652344 13.519531 27.675781 13.46875 27.714844 C 13.417969 27.753906 13.382812 27.816406 13.375 27.886719 C 13.367188 27.957031 13.386719 28.023438 13.429688 28.078125 C 13.472656 28.128906 13.535156 28.167969 13.605469 28.171875 C 13.753906 28.183594 13.878906 28.078125 13.890625 27.933594 C 13.898438 27.792969 13.796875 27.667969 13.65625 27.65625 Z M 13.65625 27.65625 " fill-opacity="1" fill-rule="nonzero"/></g><g clip-path="url(#225e516ee4)"><path fill="#ffde59" d="M 12.648438 27.519531 C 12.507812 27.496094 12.375 27.589844 12.347656 27.730469 C 12.320312 27.871094 12.414062 28.003906 12.558594 28.03125 C 12.703125 28.054688 12.835938 27.960938 12.859375 27.820312 C 12.878906 27.679688 12.785156 27.546875 12.648438 27.519531 Z M 12.648438 27.519531 " fill-opacity="1" fill-rule="nonzero"/></g><path fill="#ffde59" d="M 11.652344 27.3125 C 11.515625 27.277344 11.378906 27.355469 11.339844 27.492188 C 11.300781 27.628906 11.382812 27.777344 11.527344 27.8125 C 11.667969 27.84375 11.808594 27.757812 11.839844 27.621094 C 11.875 27.480469 11.789062 27.34375 11.652344 27.3125 Z M 11.652344 27.3125 " fill-opacity="1" fill-rule="nonzero"/><path fill="#ffde59" d="M 10.679688 27.023438 C 10.546875 26.976562 10.398438 27.050781 10.351562 27.183594 C 10.300781 27.316406 10.375 27.464844 10.511719 27.511719 C 10.652344 27.558594 10.796875 27.484375 10.839844 27.347656 C 10.882812 27.214844 10.808594 27.066406 10.679688 27.023438 Z M 10.679688 27.023438 " fill-opacity="1" fill-rule="nonzero"/><path fill="#ffde59" d="M 9.726562 26.664062 C 9.597656 26.605469 9.449219 26.664062 9.386719 26.792969 C 9.328125 26.921875 9.390625 27.078125 9.523438 27.136719 C 9.660156 27.195312 9.8125 27.128906 9.867188 26.996094 C 9.917969 26.863281 9.855469 26.714844 9.726562 26.664062 Z M 9.726562 26.664062 " fill-opacity="1" fill-rule="nonzero"/><path fill="#ffde59" d="M 8.808594 26.226562 C 8.683594 26.160156 8.527344 26.210938 8.457031 26.335938 C 8.390625 26.460938 8.4375 26.617188 8.570312 26.683594 C 8.699219 26.75 8.855469 26.699219 8.917969 26.570312 C 8.984375 26.445312 8.933594 26.289062 8.808594 26.226562 Z M 8.808594 26.226562 " fill-opacity="1" fill-rule="nonzero"/><path fill="#ffde59" d="M 7.921875 25.722656 C 7.804688 25.648438 7.648438 25.683594 7.570312 25.800781 C 7.492188 25.921875 7.527344 26.082031 7.652344 26.160156 C 7.773438 26.242188 7.9375 26.199219 8.007812 26.078125 C 8.082031 25.953125 8.039062 25.800781 7.921875 25.722656 Z M 7.921875 25.722656 " fill-opacity="1" fill-rule="nonzero"/><path fill="#ffde59" d="M 7.082031 25.152344 C 6.964844 25.074219 6.808594 25.09375 6.722656 25.207031 C 6.636719 25.316406 6.65625 25.484375 6.777344 25.570312 C 6.894531 25.652344 7.058594 25.628906 7.140625 25.511719 C 7.222656 25.394531 7.195312 25.234375 7.082031 25.152344 Z M 7.082031 25.152344 " fill-opacity="1" fill-rule="nonzero"/><path fill="#ffde59" d="M 5.921875 24.546875 C 5.824219 24.652344 5.839844 24.816406 5.949219 24.910156 C 6.058594 25.007812 6.222656 24.996094 6.3125 24.886719 C 6.402344 24.773438 6.390625 24.609375 6.285156 24.519531 C 6.179688 24.429688 6.015625 24.4375 5.921875 24.546875 Z M 5.921875 24.546875 " fill-opacity="1" fill-rule="nonzero"/><path fill="#ffde59" d="M 5.175781 23.824219 C 5.070312 23.925781 5.070312 24.089844 5.171875 24.195312 C 5.277344 24.296875 5.445312 24.296875 5.542969 24.191406 C 5.640625 24.089844 5.636719 23.925781 5.535156 23.832031 C 5.441406 23.730469 5.277344 23.726562 5.175781 23.824219 Z M 5.175781 23.824219 " fill-opacity="1" fill-rule="nonzero"/><path fill="#ffde59" d="M 4.480469 23.054688 C 4.371094 23.144531 4.359375 23.308594 4.457031 23.417969 C 4.550781 23.527344 4.714844 23.542969 4.820312 23.445312 C 4.929688 23.351562 4.941406 23.1875 4.847656 23.082031 C 4.757812 22.976562 4.59375 22.964844 4.480469 23.054688 Z M 4.480469 23.054688 " fill-opacity="1" fill-rule="nonzero"/><path fill="#ffde59" d="M 3.855469 22.226562 C 3.738281 22.308594 3.714844 22.472656 3.796875 22.589844 C 3.878906 22.710938 4.050781 22.734375 4.160156 22.644531 C 4.273438 22.558594 4.292969 22.402344 4.214844 22.285156 C 4.132812 22.171875 3.972656 22.144531 3.855469 22.226562 Z M 3.855469 22.226562 " fill-opacity="1" fill-rule="nonzero"/><path fill="#ffde59" d="M 3.289062 21.359375 C 3.167969 21.429688 3.125 21.59375 3.207031 21.714844 C 3.285156 21.839844 3.445312 21.875 3.566406 21.796875 C 3.683594 21.71875 3.722656 21.5625 3.644531 21.445312 C 3.566406 21.328125 3.414062 21.285156 3.289062 21.359375 Z M 3.289062 21.359375 " fill-opacity="1" fill-rule="nonzero"/><path fill="#ffde59" d="M 3.140625 20.558594 C 3.078125 20.433594 2.921875 20.386719 2.796875 20.449219 C 2.667969 20.511719 2.617188 20.667969 2.683594 20.796875 C 2.75 20.925781 2.90625 20.976562 3.03125 20.910156 C 3.15625 20.839844 3.207031 20.683594 3.140625 20.558594 Z M 3.140625 20.558594 " fill-opacity="1" fill-rule="nonzero"/><path fill="#ffde59" d="M 2.703125 19.640625 C 2.648438 19.511719 2.503906 19.449219 2.371094 19.5 C 2.238281 19.554688 2.171875 19.707031 2.230469 19.84375 C 2.289062 19.976562 2.445312 20.039062 2.574219 19.980469 C 2.703125 19.917969 2.761719 19.769531 2.703125 19.640625 Z M 2.703125 19.640625 " fill-opacity="1" fill-rule="nonzero"/><g clip-path="url(#184097eb4d)"><path fill="#ffde59" d="M 2.347656 18.691406 C 2.300781 18.558594 2.15625 18.484375 2.019531 18.527344 C 1.882812 18.570312 1.808594 18.714844 1.855469 18.855469 C 1.902344 18.992188 2.050781 19.066406 2.183594 19.019531 C 2.316406 18.96875 2.390625 18.824219 2.347656 18.691406 Z M 2.347656 18.691406 " fill-opacity="1" fill-rule="nonzero"/></g><g clip-path="url(#e76dfd0cf2)"><path fill="#ffde59" d="M 2.054688 17.714844 C 2.023438 17.578125 1.886719 17.492188 1.746094 17.527344 C 1.609375 17.558594 1.523438 17.699219 1.554688 17.84375 C 1.589844 17.984375 1.738281 18.066406 1.875 18.027344 C 2.011719 17.988281 2.089844 17.851562 2.054688 17.714844 Z M 2.054688 17.714844 " fill-opacity="1" fill-rule="nonzero"/></g><g clip-path="url(#2e51898ec9)"><path fill="#ffde59" d="M 1.636719 17.019531 C 1.777344 16.992188 1.871094 16.855469 1.847656 16.71875 C 1.820312 16.582031 1.6875 16.488281 1.546875 16.507812 C 1.40625 16.527344 1.3125 16.664062 1.335938 16.808594 C 1.363281 16.953125 1.496094 17.046875 1.636719 17.019531 Z M 1.636719 17.019531 " fill-opacity="1" fill-rule="nonzero"/></g><g clip-path="url(#7b14311f6e)"><path fill="#ffde59" d="M 1.480469 15.996094 C 1.550781 15.984375 1.613281 15.949219 1.652344 15.898438 C 1.695312 15.847656 1.714844 15.78125 1.710938 15.710938 C 1.699219 15.574219 1.574219 15.46875 1.433594 15.476562 C 1.292969 15.488281 1.183594 15.613281 1.195312 15.761719 C 1.199219 15.832031 1.238281 15.898438 1.289062 15.9375 C 1.34375 15.980469 1.410156 16.003906 1.480469 15.996094 Z M 1.480469 15.996094 " fill-opacity="1" fill-rule="nonzero"/></g><g clip-path="url(#170220bb75)"><path fill="#ffde59" d="M 1.402344 14.960938 C 1.546875 14.953125 1.65625 14.835938 1.652344 14.695312 C 1.652344 14.554688 1.53125 14.441406 1.390625 14.441406 C 1.246094 14.441406 1.132812 14.558594 1.136719 14.707031 C 1.140625 14.851562 1.261719 14.964844 1.402344 14.960938 Z M 1.402344 14.960938 " fill-opacity="1" fill-rule="nonzero"/></g><g clip-path="url(#d9b9e590a5)"><path fill="#ffde59" d="M 1.402344 13.921875 C 1.472656 13.925781 1.539062 13.898438 1.585938 13.855469 C 1.632812 13.8125 1.664062 13.75 1.671875 13.679688 C 1.679688 13.539062 1.574219 13.417969 1.433594 13.40625 C 1.289062 13.394531 1.167969 13.503906 1.15625 13.648438 C 1.148438 13.722656 1.175781 13.789062 1.222656 13.839844 C 1.269531 13.890625 1.332031 13.921875 1.402344 13.921875 Z M 1.402344 13.921875 " fill-opacity="1" fill-rule="nonzero"/></g><g clip-path="url(#e814952151)"><path fill="#ffde59" d="M 1.480469 12.890625 C 1.621094 12.90625 1.75 12.804688 1.769531 12.667969 C 1.789062 12.527344 1.6875 12.398438 1.546875 12.375 C 1.40625 12.351562 1.277344 12.453125 1.257812 12.597656 C 1.238281 12.742188 1.339844 12.875 1.480469 12.890625 Z M 1.480469 12.890625 " fill-opacity="1" fill-rule="nonzero"/></g><g clip-path="url(#df2bd00ee2)"><path fill="#ffde59" d="M 1.636719 11.863281 C 1.707031 11.878906 1.777344 11.863281 1.832031 11.824219 C 1.882812 11.789062 1.925781 11.730469 1.941406 11.664062 C 1.972656 11.527344 1.886719 11.390625 1.746094 11.359375 C 1.609375 11.324219 1.46875 11.414062 1.4375 11.558594 C 1.417969 11.628906 1.433594 11.699219 1.472656 11.753906 C 1.507812 11.808594 1.566406 11.851562 1.636719 11.863281 Z M 1.636719 11.863281 " fill-opacity="1" fill-rule="nonzero"/></g><g clip-path="url(#4a8092a773)"><path fill="#ffde59" d="M 1.875 10.855469 C 2.011719 10.890625 2.152344 10.8125 2.191406 10.679688 C 2.210938 10.609375 2.199219 10.542969 2.167969 10.484375 C 2.136719 10.425781 2.085938 10.378906 2.019531 10.355469 C 1.949219 10.335938 1.878906 10.34375 1.820312 10.375 C 1.761719 10.40625 1.71875 10.460938 1.695312 10.53125 C 1.65625 10.671875 1.734375 10.816406 1.875 10.855469 Z M 1.875 10.855469 " fill-opacity="1" fill-rule="nonzero"/></g><path fill="#ffde59" d="M 2.183594 9.867188 C 2.25 9.890625 2.320312 9.882812 2.378906 9.855469 C 2.441406 9.828125 2.492188 9.78125 2.515625 9.714844 C 2.566406 9.585938 2.503906 9.4375 2.371094 9.382812 C 2.238281 9.328125 2.089844 9.394531 2.035156 9.53125 C 2.007812 9.597656 2.011719 9.671875 2.035156 9.730469 C 2.066406 9.792969 2.117188 9.839844 2.183594 9.867188 Z M 2.183594 9.867188 " fill-opacity="1" fill-rule="nonzero"/><path fill="#ffde59" d="M 2.574219 8.90625 C 2.703125 8.964844 2.855469 8.90625 2.914062 8.777344 C 2.929688 8.746094 2.9375 8.714844 2.9375 8.679688 C 2.9375 8.648438 2.933594 8.613281 2.925781 8.582031 C 2.902344 8.519531 2.859375 8.46875 2.796875 8.433594 C 2.730469 8.402344 2.660156 8.402344 2.597656 8.421875 C 2.566406 8.433594 2.535156 8.449219 2.507812 8.472656 C 2.484375 8.496094 2.464844 8.523438 2.449219 8.558594 C 2.386719 8.691406 2.445312 8.847656 2.574219 8.90625 Z M 2.574219 8.90625 " fill-opacity="1" fill-rule="nonzero"/><path fill="#ffde59" d="M 3.03125 7.972656 C 3.15625 8.042969 3.316406 8 3.386719 7.878906 C 3.457031 7.757812 3.414062 7.597656 3.289062 7.523438 C 3.167969 7.453125 3.011719 7.496094 2.9375 7.621094 C 2.863281 7.75 2.90625 7.90625 3.03125 7.972656 Z M 3.03125 7.972656 " fill-opacity="1" fill-rule="nonzero"/><path fill="#ffde59" d="M 3.917969 7.011719 C 4 6.898438 3.972656 6.738281 3.855469 6.65625 C 3.738281 6.574219 3.578125 6.605469 3.492188 6.722656 C 3.410156 6.847656 3.445312 7.007812 3.566406 7.085938 C 3.683594 7.164062 3.84375 7.128906 3.917969 7.011719 Z M 3.917969 7.011719 " fill-opacity="1" fill-rule="nonzero"/><path fill="#ffde59" d="M 4.523438 6.195312 C 4.609375 6.082031 4.59375 5.921875 4.480469 5.828125 C 4.371094 5.738281 4.210938 5.757812 4.121094 5.875 C 4.03125 5.988281 4.046875 6.152344 4.160156 6.238281 C 4.277344 6.324219 4.4375 6.304688 4.523438 6.195312 Z M 4.523438 6.195312 " fill-opacity="1" fill-rule="nonzero"/><path fill="#ffde59" d="M 5.175781 5.058594 C 5.074219 4.957031 4.90625 4.964844 4.808594 5.070312 C 4.703125 5.175781 4.714844 5.34375 4.820312 5.4375 C 4.929688 5.53125 5.085938 5.519531 5.183594 5.421875 C 5.28125 5.320312 5.277344 5.15625 5.175781 5.058594 Z M 5.175781 5.058594 " fill-opacity="1" fill-rule="nonzero"/><path fill="#ffde59" d="M 5.921875 4.339844 C 5.828125 4.230469 5.660156 4.222656 5.554688 4.324219 C 5.449219 4.425781 5.441406 4.589844 5.542969 4.691406 C 5.640625 4.792969 5.804688 4.796875 5.90625 4.703125 C 6.003906 4.605469 6.015625 4.445312 5.921875 4.339844 Z M 5.921875 4.339844 " fill-opacity="1" fill-rule="nonzero"/><path fill="#ffde59" d="M 6.722656 3.679688 C 6.636719 3.566406 6.472656 3.546875 6.355469 3.636719 C 6.242188 3.726562 6.222656 3.890625 6.3125 4 C 6.402344 4.109375 6.566406 4.128906 6.675781 4.039062 C 6.789062 3.953125 6.808594 3.792969 6.722656 3.679688 Z M 6.722656 3.679688 " fill-opacity="1" fill-rule="nonzero"/><path fill="#ffde59" d="M 7.570312 3.082031 C 7.492188 2.960938 7.328125 2.929688 7.207031 3.007812 C 7.085938 3.09375 7.058594 3.257812 7.140625 3.371094 C 7.222656 3.488281 7.382812 3.515625 7.496094 3.4375 C 7.613281 3.359375 7.644531 3.203125 7.570312 3.082031 Z M 7.570312 3.082031 " fill-opacity="1" fill-rule="nonzero"/><path fill="#ffde59" d="M 8.457031 2.546875 C 8.390625 2.421875 8.234375 2.378906 8.105469 2.453125 C 7.980469 2.527344 7.933594 2.683594 8.007812 2.808594 C 8.082031 2.929688 8.238281 2.972656 8.359375 2.902344 C 8.484375 2.832031 8.527344 2.671875 8.457031 2.546875 Z M 8.457031 2.546875 " fill-opacity="1" fill-rule="nonzero"/><path fill="#ffde59" d="M 9.390625 2.089844 C 9.332031 1.960938 9.175781 1.902344 9.042969 1.964844 C 9.007812 1.980469 8.980469 2 8.957031 2.023438 C 8.933594 2.050781 8.917969 2.082031 8.90625 2.113281 C 8.886719 2.175781 8.886719 2.246094 8.921875 2.3125 C 8.953125 2.375 9.007812 2.417969 9.066406 2.441406 C 9.097656 2.449219 9.132812 2.453125 9.164062 2.453125 C 9.199219 2.453125 9.230469 2.445312 9.265625 2.429688 C 9.390625 2.375 9.445312 2.222656 9.390625 2.089844 Z M 9.390625 2.089844 " fill-opacity="1" fill-rule="nonzero"/><path fill="#ffde59" d="M 10.351562 1.699219 C 10.324219 1.632812 10.277344 1.582031 10.214844 1.554688 C 10.15625 1.527344 10.082031 1.523438 10.015625 1.550781 C 9.878906 1.605469 9.8125 1.753906 9.867188 1.886719 C 9.917969 2.019531 10.070312 2.085938 10.199219 2.03125 C 10.265625 2.007812 10.3125 1.957031 10.339844 1.894531 C 10.367188 1.835938 10.375 1.769531 10.351562 1.699219 Z M 10.351562 1.699219 " fill-opacity="1" fill-rule="nonzero"/><path fill="#ffde59" d="M 11.339844 1.390625 C 11.300781 1.253906 11.15625 1.171875 11.015625 1.214844 C 10.945312 1.234375 10.890625 1.277344 10.859375 1.335938 C 10.828125 1.394531 10.820312 1.46875 10.839844 1.535156 C 10.863281 1.601562 10.910156 1.65625 10.96875 1.683594 C 11.027344 1.71875 11.09375 1.726562 11.164062 1.707031 C 11.296875 1.671875 11.375 1.527344 11.339844 1.390625 Z M 11.339844 1.390625 " fill-opacity="1" fill-rule="nonzero"/><g clip-path="url(#c699c435ef)"><path fill="#ffde59" d="M 12.347656 1.152344 C 12.335938 1.082031 12.292969 1.027344 12.238281 0.988281 C 12.183594 0.949219 12.113281 0.933594 12.039062 0.953125 C 11.898438 0.984375 11.808594 1.125 11.839844 1.261719 C 11.875 1.402344 12.011719 1.488281 12.148438 1.457031 C 12.214844 1.441406 12.273438 1.398438 12.308594 1.347656 C 12.347656 1.292969 12.363281 1.222656 12.347656 1.152344 Z M 12.347656 1.152344 " fill-opacity="1" fill-rule="nonzero"/></g><g clip-path="url(#6eee2e2c50)"><path fill="#ffde59" d="M 13.375 0.996094 C 13.359375 0.855469 13.226562 0.753906 13.082031 0.773438 C 12.9375 0.792969 12.835938 0.921875 12.859375 1.0625 C 12.882812 1.203125 13.011719 1.304688 13.148438 1.285156 C 13.289062 1.269531 13.390625 1.136719 13.375 0.996094 Z M 13.375 0.996094 " fill-opacity="1" fill-rule="nonzero"/></g><g clip-path="url(#ef0caf6c0a)"><path fill="#ffde59" d="M 14.324219 0.738281 C 14.273438 0.691406 14.207031 0.664062 14.132812 0.671875 C 13.988281 0.683594 13.878906 0.808594 13.890625 0.949219 C 13.902344 1.089844 14.023438 1.199219 14.164062 1.1875 C 14.234375 1.179688 14.292969 1.152344 14.339844 1.101562 C 14.382812 1.054688 14.410156 0.988281 14.40625 0.917969 C 14.40625 0.847656 14.375 0.785156 14.324219 0.738281 Z M 14.324219 0.738281 " fill-opacity="1" fill-rule="nonzero"/></g><g clip-path="url(#bc8f2010a4)"><path fill="#ffde59" d="M 15.191406 0.652344 C 15.042969 0.648438 14.925781 0.761719 14.925781 0.90625 C 14.925781 1.046875 15.039062 1.167969 15.179688 1.171875 C 15.320312 1.171875 15.4375 1.0625 15.445312 0.917969 C 15.449219 0.777344 15.335938 0.65625 15.191406 0.652344 Z M 15.191406 0.652344 " fill-opacity="1" fill-rule="nonzero"/></g><g clip-path="url(#eb8e17dfc0)"><path fill="#ffde59" d="M 16.421875 0.804688 C 16.378906 0.753906 16.316406 0.714844 16.246094 0.710938 C 16.097656 0.699219 15.972656 0.804688 15.960938 0.949219 C 15.953125 1.089844 16.054688 1.214844 16.195312 1.226562 C 16.265625 1.230469 16.332031 1.207031 16.382812 1.167969 C 16.433594 1.128906 16.46875 1.066406 16.476562 0.996094 C 16.484375 0.925781 16.464844 0.859375 16.421875 0.804688 Z M 16.421875 0.804688 " fill-opacity="1" fill-rule="nonzero"/></g><g clip-path="url(#c1acfb14b4)"><path fill="#ffde59" d="M 17.292969 0.855469 C 17.148438 0.828125 17.011719 0.921875 16.992188 1.0625 C 16.96875 1.203125 17.066406 1.335938 17.203125 1.363281 C 17.339844 1.386719 17.476562 1.292969 17.503906 1.152344 C 17.53125 1.015625 17.433594 0.878906 17.292969 0.855469 Z M 17.292969 0.855469 " fill-opacity="1" fill-rule="nonzero"/></g><path fill="#ffde59" d="M 18.324219 1.070312 C 18.183594 1.039062 18.042969 1.125 18.007812 1.261719 C 17.976562 1.402344 18.0625 1.539062 18.199219 1.570312 C 18.335938 1.605469 18.472656 1.527344 18.511719 1.390625 C 18.550781 1.253906 18.46875 1.105469 18.324219 1.070312 Z M 18.324219 1.070312 " fill-opacity="1" fill-rule="nonzero"/><path fill="#ffde59" d="M 19.339844 1.371094 C 19.199219 1.324219 19.054688 1.398438 19.011719 1.535156 C 18.96875 1.671875 19.039062 1.816406 19.175781 1.863281 C 19.304688 1.90625 19.453125 1.835938 19.503906 1.699219 C 19.550781 1.566406 19.476562 1.421875 19.339844 1.371094 Z M 19.339844 1.371094 " fill-opacity="1" fill-rule="nonzero"/><path fill="#ffde59" d="M 20.328125 1.746094 C 20.191406 1.6875 20.039062 1.753906 19.984375 1.886719 C 19.933594 2.019531 19.996094 2.167969 20.125 2.222656 C 20.253906 2.277344 20.402344 2.21875 20.460938 2.089844 C 20.519531 1.960938 20.460938 1.808594 20.328125 1.746094 Z M 20.328125 1.746094 " fill-opacity="1" fill-rule="nonzero"/><path fill="#ffde59" d="M 21.394531 2.546875 C 21.460938 2.421875 21.410156 2.265625 21.28125 2.199219 C 21.152344 2.132812 20.996094 2.183594 20.933594 2.3125 C 20.871094 2.4375 20.917969 2.59375 21.042969 2.65625 C 21.167969 2.722656 21.324219 2.671875 21.394531 2.546875 Z M 21.394531 2.546875 " fill-opacity="1" fill-rule="nonzero"/><path fill="#ffde59" d="M 22.28125 3.082031 C 22.359375 2.960938 22.324219 2.800781 22.199219 2.722656 C 22.078125 2.640625 21.914062 2.683594 21.84375 2.808594 C 21.769531 2.929688 21.8125 3.082031 21.925781 3.160156 C 22.046875 3.238281 22.203125 3.199219 22.28125 3.082031 Z M 22.28125 3.082031 " fill-opacity="1" fill-rule="nonzero"/><path fill="#ffde59" d="M 23.128906 3.679688 C 23.214844 3.566406 23.195312 3.398438 23.074219 3.316406 C 22.957031 3.230469 22.792969 3.253906 22.710938 3.371094 C 22.628906 3.488281 22.65625 3.648438 22.769531 3.730469 C 22.886719 3.808594 23.042969 3.792969 23.128906 3.679688 Z M 23.128906 3.679688 " fill-opacity="1" fill-rule="nonzero"/><path fill="#ffde59" d="M 23.902344 3.972656 C 23.792969 3.875 23.628906 3.886719 23.539062 4 C 23.449219 4.109375 23.460938 4.273438 23.566406 4.363281 C 23.671875 4.457031 23.835938 4.445312 23.929688 4.339844 C 24.023438 4.230469 24.011719 4.070312 23.902344 3.972656 Z M 23.902344 3.972656 " fill-opacity="1" fill-rule="nonzero"/><path fill="#ffde59" d="M 24.679688 4.6875 C 24.574219 4.585938 24.40625 4.589844 24.308594 4.691406 C 24.210938 4.792969 24.214844 4.957031 24.3125 5.050781 C 24.410156 5.152344 24.574219 5.15625 24.675781 5.058594 C 24.777344 4.960938 24.78125 4.792969 24.679688 4.6875 Z M 24.679688 4.6875 " fill-opacity="1" fill-rule="nonzero"/><path fill="#ffde59" d="M 25.394531 5.464844 C 25.300781 5.355469 25.136719 5.34375 25.027344 5.4375 C 24.921875 5.53125 24.910156 5.695312 25.003906 5.800781 C 25.09375 5.90625 25.257812 5.921875 25.367188 5.828125 C 25.480469 5.738281 25.492188 5.578125 25.394531 5.464844 Z M 25.394531 5.464844 " fill-opacity="1" fill-rule="nonzero"/><path fill="#ffde59" d="M 26.054688 6.292969 C 25.96875 6.171875 25.800781 6.152344 25.6875 6.238281 C 25.574219 6.324219 25.558594 6.480469 25.636719 6.597656 C 25.71875 6.710938 25.878906 6.738281 25.996094 6.65625 C 26.113281 6.574219 26.136719 6.410156 26.054688 6.292969 Z M 26.054688 6.292969 " fill-opacity="1" fill-rule="nonzero"/><path fill="#ffde59" d="M 26.644531 7.167969 C 26.566406 7.042969 26.40625 7.007812 26.285156 7.085938 C 26.167969 7.164062 26.128906 7.320312 26.207031 7.441406 C 26.285156 7.554688 26.4375 7.597656 26.558594 7.523438 C 26.683594 7.453125 26.726562 7.289062 26.644531 7.167969 Z M 26.644531 7.167969 " fill-opacity="1" fill-rule="nonzero"/><path fill="#ffde59" d="M 26.710938 8.324219 C 26.773438 8.449219 26.929688 8.5 27.054688 8.4375 C 27.183594 8.375 27.234375 8.214844 27.167969 8.085938 C 27.097656 7.957031 26.945312 7.90625 26.820312 7.976562 C 26.695312 8.042969 26.644531 8.199219 26.710938 8.324219 Z M 26.710938 8.324219 " fill-opacity="1" fill-rule="nonzero"/><path fill="#ffde59" d="M 27.144531 9.242188 C 27.199219 9.371094 27.347656 9.433594 27.480469 9.382812 C 27.613281 9.328125 27.679688 9.175781 27.621094 9.039062 C 27.5625 8.90625 27.40625 8.84375 27.277344 8.90625 C 27.148438 8.964844 27.089844 9.113281 27.144531 9.242188 Z M 27.144531 9.242188 " fill-opacity="1" fill-rule="nonzero"/><g clip-path="url(#a498a6f47a)"><path fill="#ffde59" d="M 27.503906 10.195312 C 27.550781 10.328125 27.695312 10.398438 27.832031 10.355469 C 27.96875 10.316406 28.042969 10.167969 27.996094 10.027344 C 27.949219 9.890625 27.800781 9.816406 27.667969 9.867188 C 27.53125 9.914062 27.460938 10.0625 27.503906 10.195312 Z M 27.503906 10.195312 " fill-opacity="1" fill-rule="nonzero"/></g><g clip-path="url(#f22c1480d2)"><path fill="#ffde59" d="M 27.796875 11.167969 C 27.828125 11.304688 27.964844 11.390625 28.105469 11.359375 C 28.242188 11.324219 28.328125 11.183594 28.296875 11.042969 C 28.261719 10.898438 28.113281 10.816406 27.976562 10.855469 C 27.839844 10.894531 27.761719 11.03125 27.796875 11.167969 Z M 27.796875 11.167969 " fill-opacity="1" fill-rule="nonzero"/></g><g clip-path="url(#dbb0cde080)"><path fill="#ffde59" d="M 28.214844 11.863281 C 28.074219 11.890625 27.980469 12.027344 28.003906 12.164062 C 28.03125 12.300781 28.164062 12.394531 28.304688 12.375 C 28.445312 12.355469 28.539062 12.21875 28.511719 12.074219 C 28.488281 11.933594 28.355469 11.835938 28.214844 11.863281 Z M 28.214844 11.863281 " fill-opacity="1" fill-rule="nonzero"/></g><g clip-path="url(#23727d97fc)"><path fill="#ffde59" d="M 28.371094 12.890625 C 28.300781 12.898438 28.238281 12.933594 28.199219 12.984375 C 28.15625 13.035156 28.136719 13.101562 28.140625 13.171875 C 28.152344 13.3125 28.277344 13.414062 28.417969 13.40625 C 28.558594 13.394531 28.664062 13.269531 28.65625 13.121094 C 28.648438 13.050781 28.613281 12.988281 28.558594 12.945312 C 28.507812 12.902344 28.441406 12.882812 28.371094 12.890625 Z M 28.371094 12.890625 " fill-opacity="1" fill-rule="nonzero"/></g><g clip-path="url(#6821d2b7e0)"><path fill="#ffde59" d="M 28.449219 13.921875 C 28.304688 13.929688 28.195312 14.046875 28.195312 14.1875 C 28.199219 14.328125 28.320312 14.441406 28.460938 14.441406 C 28.605469 14.441406 28.71875 14.324219 28.714844 14.175781 C 28.710938 14.03125 28.589844 13.917969 28.449219 13.921875 Z M 28.449219 13.921875 " fill-opacity="1" fill-rule="nonzero"/></g><g clip-path="url(#830e2acf2a)"><path fill="#737373" d="M 13.269531 8.371094 L 16.539062 8.371094 L 16.539062 9.050781 L 13.269531 9.050781 Z M 13.269531 8.371094 " fill-opacity="1" fill-rule="nonzero"/></g><path stroke-linecap="round" transform="matrix(0.0515329, 0.0221036, -0.0228885, 0.0533629, 2.778908, 9.770767)" fill="none" stroke-linejoin="miter" d="M 1.466289 1.492329 L 9.890904 1.516423 " stroke="#ffde59" stroke-width="3" stroke-opacity="1" stroke-miterlimit="4"/><path stroke-linecap="round" transform="matrix(0.0543871, 0.0136475, -0.0141322, 0.0563185, 2.211741, 11.687383)" fill="none" stroke-linejoin="miter" d="M 1.525503 1.505134 L 9.922714 1.4817 " stroke="#ffde59" stroke-width="3" stroke-opacity="1" stroke-miterlimit="4"/><path stroke-linecap="round" transform="matrix(0.0558245, 0.00527559, -0.00546293, 0.057807, 1.921517, 13.676732)" fill="none" stroke-linejoin="miter" d="M 1.479796 1.470283 L 9.880962 1.514463 " stroke="#ffde59" stroke-width="3" stroke-opacity="1" stroke-miterlimit="4"/><path stroke-linecap="round" transform="matrix(0.0560245, -0.00233947, 0.00242255, 0.058014, 1.928355, 15.683912)" fill="none" stroke-linejoin="miter" d="M 1.494208 1.468764 L 9.930661 1.472308 " stroke="#ffde59" stroke-width="3" stroke-opacity="1" stroke-miterlimit="4"/><path stroke-linecap="round" transform="matrix(0.0539214, -0.0153849, 0.0159312, 0.0558362, 2.254719, 17.610567)" fill="none" stroke-linejoin="miter" d="M 1.494801 1.509877 L 9.896378 1.516167 " stroke="#ffde59" stroke-width="3" stroke-opacity="1" stroke-miterlimit="4"/><path stroke-linecap="round" transform="matrix(0.0521022, -0.0207261, 0.0214622, 0.0539524, 2.889657, 19.561021)" fill="none" stroke-linejoin="miter" d="M 1.509735 1.476212 L 9.892444 1.510803 " stroke="#ffde59" stroke-width="3" stroke-opacity="1" stroke-miterlimit="4"/><path stroke-linecap="round" transform="matrix(0.0480596, -0.0288875, 0.0299133, 0.0497663, 3.805274, 21.345757)" fill="none" stroke-linejoin="miter" d="M 1.477697 1.523852 L 9.88855 1.461049 " stroke="#ffde59" stroke-width="3" stroke-opacity="1" stroke-miterlimit="4"/><path stroke-linecap="round" transform="matrix(0.0445808, -0.0340112, 0.035219, 0.0461639, 4.95157, 22.983758)" fill="none" stroke-linejoin="miter" d="M 1.465667 1.516277 L 9.90949 1.475605 " stroke="#ffde59" stroke-width="3" stroke-opacity="1" stroke-miterlimit="4"/><path stroke-linecap="round" transform="matrix(0.0384436, -0.0408204, 0.04227, 0.0398088, 6.354798, 24.403571)" fill="none" stroke-linejoin="miter" d="M 1.504725 1.512135 L 9.883918 1.469228 " stroke="#ffde59" stroke-width="3" stroke-opacity="1" stroke-miterlimit="4"/><path stroke-linecap="round" transform="matrix(0.0319049, -0.0461117, 0.0477492, 0.0330379, 7.995008, 25.617634)" fill="none" stroke-linejoin="miter" d="M 1.493136 1.479295 L 9.899574 1.507034 " stroke="#ffde59" stroke-width="3" stroke-opacity="1" stroke-miterlimit="4"/><path stroke-linecap="round" transform="matrix(0.0175794, -0.0532464, 0.0551372, 0.0182037, 11.694597, 27.225574)" fill="none" stroke-linejoin="miter" d="M 1.524898 1.510481 L 9.896063 1.533649 " stroke="#ffde59" stroke-width="3" stroke-opacity="1" stroke-miterlimit="4"/><path stroke-linecap="round" transform="matrix(0.0245163, -0.0504298, 0.0522206, 0.0253869, 9.813943, 26.555865)" fill="none" stroke-linejoin="miter" d="M 1.485251 1.519162 L 9.928604 1.519763 " stroke="#ffde59" stroke-width="3" stroke-opacity="1" stroke-miterlimit="4"/><path stroke-linecap="round" transform="matrix(0.0076416, -0.0555501, 0.0575228, 0.00791296, 13.67737, 27.591373)" fill="none" stroke-linejoin="miter" d="M 1.502735 1.470453 L 9.87672 1.512447 " stroke="#ffde59" stroke-width="3" stroke-opacity="1" stroke-miterlimit="4"/><path stroke-linecap="round" transform="matrix(0.000000000000000003, -0.0560733, 0.0580645, 0.000000000000000004, 15.672591, 27.645895)" fill="none" stroke-linejoin="miter" d="M 1.487253 1.467698 L 9.916513 1.467698 " stroke="#ffde59" stroke-width="3" stroke-opacity="1" stroke-miterlimit="4"/><path stroke-linecap="round" transform="matrix(-0.0114087, -0.0549004, 0.05685, -0.0118138, 17.692665, 27.377986)" fill="none" stroke-linejoin="miter" d="M 1.50674 1.517036 L 9.909411 1.485498 " stroke="#ffde59" stroke-width="3" stroke-opacity="1" stroke-miterlimit="4"/><path stroke-linecap="round" transform="matrix(-0.019251, -0.0526651, 0.0545353, -0.0199347, 19.588838, 26.831181)" fill="none" stroke-linejoin="miter" d="M 1.500693 1.479352 L 9.874767 1.498668 " stroke="#ffde59" stroke-width="3" stroke-opacity="1" stroke-miterlimit="4"/><path stroke-linecap="round" transform="matrix(-0.0312541, -0.0465553, 0.0482085, -0.032364, 21.399442, 26.000889)" fill="none" stroke-linejoin="miter" d="M 1.486497 1.510083 L 9.871884 1.517534 " stroke="#ffde59" stroke-width="3" stroke-opacity="1" stroke-miterlimit="4"/><path stroke-linecap="round" transform="matrix(-0.036925, -0.042199, 0.0436975, -0.0382363, 23.07707, 24.887418)" fill="none" stroke-linejoin="miter" d="M 1.53046 1.496191 L 9.872904 1.48363 " stroke="#ffde59" stroke-width="3" stroke-opacity="1" stroke-miterlimit="4"/><path stroke-linecap="round" transform="matrix(-0.0434452, -0.0354504, 0.0367093, -0.044988, 24.577618, 23.4934)" fill="none" stroke-linejoin="miter" d="M 1.533893 1.509934 L 9.90074 1.515871 " stroke="#ffde59" stroke-width="3" stroke-opacity="1" stroke-miterlimit="4"/><path stroke-linecap="round" transform="matrix(-0.0470491, -0.0305056, 0.0315889, -0.0487199, 25.825907, 21.954522)" fill="none" stroke-linejoin="miter" d="M 1.526503 1.478188 L 9.931495 1.507187 " stroke="#ffde59" stroke-width="3" stroke-opacity="1" stroke-miterlimit="4"/><path stroke-linecap="round" transform="matrix(-0.0511409, -0.022996, 0.0238127, -0.052957, 26.860414, 20.174655)" fill="none" stroke-linejoin="miter" d="M 1.47253 1.478422 L 9.88991 1.511394 " stroke="#ffde59" stroke-width="3" stroke-opacity="1" stroke-miterlimit="4"/><path stroke-linecap="round" transform="matrix(-0.0533323, -0.0173169, 0.0179318, -0.0552262, 27.578936, 18.2865)" fill="none" stroke-linejoin="miter" d="M 1.484894 1.539223 L 9.900584 1.517457 " stroke="#ffde59" stroke-width="3" stroke-opacity="1" stroke-miterlimit="4"/><path stroke-linecap="round" transform="matrix(-0.0557927, -0.0056022, 0.00580114, -0.057774, 27.994866, 16.351556)" fill="none" stroke-linejoin="miter" d="M 1.531531 1.474089 L 9.863506 1.477509 " stroke="#ffde59" stroke-width="3" stroke-opacity="1" stroke-miterlimit="4"/><path stroke-linecap="round" transform="matrix(-0.0556964, 0.00649063, -0.00672113, -0.0576742, 28.142391, 14.422024)" fill="none" stroke-linejoin="miter" d="M 1.530379 1.529404 L 9.87748 1.52057 " stroke="#ffde59" stroke-width="3" stroke-opacity="1" stroke-miterlimit="4"/><path stroke-linecap="round" transform="matrix(-0.0546472, 0.0125658, -0.0130121, -0.0565878, 27.981492, 12.375533)" fill="none" stroke-linejoin="miter" d="M 1.515452 1.51944 L 9.88027 1.513115 " stroke="#ffde59" stroke-width="3" stroke-opacity="1" stroke-miterlimit="4"/><path stroke-linecap="round" transform="matrix(-0.0539654, 0.0152299, -0.0157707, -0.0558818, 27.493866, 10.361343)" fill="none" stroke-linejoin="miter" d="M 1.478615 1.486735 L 9.880176 1.469712 " stroke="#ffde59" stroke-width="3" stroke-opacity="1" stroke-miterlimit="4"/><path stroke-linecap="round" transform="matrix(-0.0497302, 0.025906, -0.026826, -0.0514962, 26.68515, 8.561479)" fill="none" stroke-linejoin="miter" d="M 1.502884 1.494779 L 9.915993 1.479249 " stroke="#ffde59" stroke-width="3" stroke-opacity="1" stroke-miterlimit="4"/><path stroke-linecap="round" transform="matrix(-0.0459995, 0.0320665, -0.0332052, -0.047633, 25.641286, 6.812256)" fill="none" stroke-linejoin="miter" d="M 1.487564 1.488354 L 9.894051 1.489093 " stroke="#ffde59" stroke-width="3" stroke-opacity="1" stroke-miterlimit="4"/><path stroke-linecap="round" transform="matrix(-0.0428739, 0.0361392, -0.0374226, -0.0443964, 24.316921, 5.285318)" fill="none" stroke-linejoin="miter" d="M 1.521686 1.506261 L 9.924098 1.483039 " stroke="#ffde59" stroke-width="3" stroke-opacity="1" stroke-miterlimit="4"/><path stroke-linecap="round" transform="matrix(-0.0354485, 0.0434467, -0.0449896, -0.0367073, 22.776138, 3.988107)" fill="none" stroke-linejoin="miter" d="M 1.515985 1.470315 L 9.882833 1.476603 " stroke="#ffde59" stroke-width="3" stroke-opacity="1" stroke-miterlimit="4"/><path stroke-linecap="round" transform="matrix(-0.0272656, 0.048998, -0.0507379, -0.0282338, 21.060884, 2.87107)" fill="none" stroke-linejoin="miter" d="M 1.489546 1.477352 L 9.879782 1.510936 " stroke="#ffde59" stroke-width="3" stroke-opacity="1" stroke-miterlimit="4"/><path stroke-linecap="round" transform="matrix(-0.0198898, 0.0524272, -0.0542889, -0.0205961, 19.265381, 2.096164)" fill="none" stroke-linejoin="miter" d="M 1.521543 1.524697 L 9.919465 1.469982 " stroke="#ffde59" stroke-width="3" stroke-opacity="1" stroke-miterlimit="4"/><path stroke-linecap="round" transform="matrix(-0.0142821, 0.0542239, -0.0561495, -0.0147893, 17.303576, 1.616987)" fill="none" stroke-linejoin="miter" d="M 1.487976 1.480073 L 9.919817 1.491997 " stroke="#ffde59" stroke-width="3" stroke-opacity="1" stroke-miterlimit="4"/><path stroke-linecap="round" transform="matrix(0.000000000000000003, 0.0560733, -0.0580645, 0.000000000000000004, 15.312017, 1.404327)" fill="none" stroke-linejoin="miter" d="M 1.49723 1.47172 L 9.92649 1.47172 " stroke="#ffde59" stroke-width="3" stroke-opacity="1" stroke-miterlimit="4"/><path stroke-linecap="round" transform="matrix(0.0107514, 0.0550329, -0.0569872, 0.0111332, 13.400543, 1.478195)" fill="none" stroke-linejoin="miter" d="M 1.514798 1.488022 L 9.889765 1.491506 " stroke="#ffde59" stroke-width="3" stroke-opacity="1" stroke-miterlimit="4"/><path stroke-linecap="round" transform="matrix(0.0170281, 0.0534252, -0.0553224, 0.0176328, 11.425228, 1.915214)" fill="none" stroke-linejoin="miter" d="M 1.524565 1.518393 L 9.873879 1.47577 " stroke="#ffde59" stroke-width="3" stroke-opacity="1" stroke-miterlimit="4"/><path stroke-linecap="round" transform="matrix(0.0270213, 0.0491331, -0.0508779, 0.0279808, 9.541508, 2.583104)" fill="none" stroke-linejoin="miter" d="M 1.491326 1.531099 L 9.942326 1.489589 " stroke="#ffde59" stroke-width="3" stroke-opacity="1" stroke-miterlimit="4"/><path stroke-linecap="round" transform="matrix(0.0333071, 0.0451093, -0.0467112, 0.0344899, 7.748903, 3.579424)" fill="none" stroke-linejoin="miter" d="M 1.523386 1.480893 L 9.897411 1.514526 " stroke="#ffde59" stroke-width="3" stroke-opacity="1" stroke-miterlimit="4"/><path stroke-linecap="round" transform="matrix(0.038795, 0.0404866, -0.0419243, 0.0401726, 6.164842, 4.82913)" fill="none" stroke-linejoin="miter" d="M 1.488506 1.489175 L 9.864901 1.506906 " stroke="#ffde59" stroke-width="3" stroke-opacity="1" stroke-miterlimit="4"/><path stroke-linecap="round" transform="matrix(0.0441972, 0.0345083, -0.0357337, 0.0457667, 4.7766, 6.295996)" fill="none" stroke-linejoin="miter" d="M 1.513849 1.523642 L 9.902706 1.514404 " stroke="#ffde59" stroke-width="3" stroke-opacity="1" stroke-miterlimit="4"/><path stroke-linecap="round" transform="matrix(0.0483919, 0.0283274, -0.0293333, 0.0501103, 3.685487, 7.986579)" fill="none" stroke-linejoin="miter" d="M 1.522953 1.511642 L 9.922218 1.518669 " stroke="#ffde59" stroke-width="3" stroke-opacity="1" stroke-miterlimit="4"/><g clip-path="url(#b5194bb079)"><g clip-path="url(#42dfca16d1)"><g clip-path="url(#f2365bcd4e)"><path fill="#ffeca2" d="M 12.0625 4.6875 L 15.882812 7.476562 L 13.792969 10.34375 L 9.96875 7.550781 Z M 12.0625 4.6875 " fill-opacity="1" fill-rule="nonzero"/></g></g></g><g clip-path="url(#a6dca52fdc)"><g clip-path="url(#55fb6f1c35)"><g clip-path="url(#13ee355528)"><path fill="#dfa84b" d="M 14.4375 5.601562 L 20.039062 9.695312 L 16.53125 14.496094 L 10.929688 10.40625 Z M 14.4375 5.601562 " fill-opacity="1" fill-rule="nonzero"/></g></g></g><g clip-path="url(#f2ab485c3a)"><path fill="#000000" d="M 12.925781 7.074219 L 16.886719 7.074219 L 16.886719 7.898438 L 12.925781 7.898438 Z M 12.925781 7.074219 " fill-opacity="1" fill-rule="nonzero"/></g><g clip-path="url(#11bc64432c)"><g clip-path="url(#ede2d5e979)"><g clip-path="url(#f947d3b449)"><path fill="#504828" d="M 15.804688 4.6875 L 20.078125 7.804688 L 17.980469 10.675781 L 13.710938 7.554688 Z M 15.804688 4.6875 " fill-opacity="1" fill-rule="nonzero"/></g></g></g><g clip-path="url(#84591125b6)"><path fill="#000000" d="M 14.476562 7.953125 L 15.304688 7.953125 L 15.304688 10.429688 L 14.476562 10.429688 Z M 14.476562 7.953125 " fill-opacity="1" fill-rule="nonzero"/></g><g clip-path="url(#620d3c4c1f)"><g clip-path="url(#cd628643b5)"><path fill="#000000" d="M 16.894531 7.953125 L 14.207031 7.953125 L 14.207031 7.058594 L 16.894531 7.058594 Z M 16.894531 7.953125 " fill-opacity="1" fill-rule="nonzero"/></g></g><g fill="#ffde59" fill-opacity="1"><g transform="translate(5.394328, 20.885355)"><g><path d="M 1.296875 -2.140625 L 1.296875 0 C 1.210938 0.0078125 1.109375 0.015625 0.984375 0.015625 C 0.867188 0.015625 0.769531 0.0078125 0.6875 0 L 0.6875 -2.140625 L 0.4375 -2.125 L 0.03125 -2.125 C 0.0195312 -2.207031 0.015625 -2.296875 0.015625 -2.390625 C 0.015625 -2.484375 0.0195312 -2.566406 0.03125 -2.640625 L 1.953125 -2.640625 C 1.972656 -2.578125 1.984375 -2.5 1.984375 -2.40625 C 1.984375 -2.3125 1.957031 -2.238281 1.90625 -2.1875 C 1.851562 -2.144531 1.769531 -2.125 1.65625 -2.125 L 1.546875 -2.125 Z M 1.296875 -2.140625 "/></g></g></g><g fill="#ffde59" fill-opacity="1"><g transform="translate(7.367291, 20.885355)"><g><path d="M 1.734375 -0.765625 L 0.734375 -0.765625 C 0.734375 -0.648438 0.757812 -0.5625 0.8125 -0.5 C 0.875 -0.4375 0.960938 -0.40625 1.078125 -0.40625 C 1.140625 -0.40625 1.210938 -0.410156 1.296875 -0.421875 C 1.378906 -0.441406 1.472656 -0.472656 1.578125 -0.515625 C 1.660156 -0.429688 1.710938 -0.3125 1.734375 -0.15625 C 1.535156 -0.0078125 1.285156 0.0625 0.984375 0.0625 C 0.816406 0.0625 0.675781 0.0351562 0.5625 -0.015625 C 0.457031 -0.0664062 0.367188 -0.140625 0.296875 -0.234375 C 0.234375 -0.328125 0.1875 -0.4375 0.15625 -0.5625 C 0.125 -0.6875 0.109375 -0.828125 0.109375 -0.984375 C 0.109375 -1.128906 0.125 -1.257812 0.15625 -1.375 C 0.195312 -1.5 0.253906 -1.609375 0.328125 -1.703125 C 0.398438 -1.796875 0.488281 -1.863281 0.59375 -1.90625 C 0.707031 -1.957031 0.835938 -1.984375 0.984375 -1.984375 C 1.109375 -1.984375 1.21875 -1.960938 1.3125 -1.921875 C 1.414062 -1.890625 1.5 -1.835938 1.5625 -1.765625 C 1.632812 -1.691406 1.691406 -1.601562 1.734375 -1.5 C 1.773438 -1.394531 1.796875 -1.285156 1.796875 -1.171875 C 1.796875 -1.015625 1.773438 -0.878906 1.734375 -0.765625 Z M 0.71875 -1.1875 L 1.234375 -1.1875 L 1.234375 -1.234375 C 1.234375 -1.328125 1.210938 -1.40625 1.171875 -1.46875 C 1.128906 -1.53125 1.066406 -1.5625 0.984375 -1.5625 C 0.898438 -1.5625 0.835938 -1.53125 0.796875 -1.46875 C 0.753906 -1.414062 0.726562 -1.320312 0.71875 -1.1875 Z M 0.71875 -1.1875 "/></g></g></g><g fill="#ffde59" fill-opacity="1"><g transform="translate(9.289963, 20.885355)"><g><path d="M 1.203125 -1.078125 L 1.203125 -1.125 C 1.203125 -1.269531 1.1875 -1.375 1.15625 -1.4375 C 1.125 -1.507812 1.0625 -1.546875 0.96875 -1.546875 C 0.882812 -1.546875 0.820312 -1.5 0.78125 -1.40625 C 0.75 -1.320312 0.734375 -1.175781 0.734375 -0.96875 C 0.734375 -0.863281 0.738281 -0.773438 0.75 -0.703125 C 0.769531 -0.628906 0.789062 -0.570312 0.8125 -0.53125 C 0.84375 -0.488281 0.878906 -0.457031 0.921875 -0.4375 C 0.960938 -0.425781 1.007812 -0.421875 1.0625 -0.421875 C 1.125 -0.421875 1.191406 -0.429688 1.265625 -0.453125 C 1.335938 -0.472656 1.414062 -0.515625 1.5 -0.578125 C 1.519531 -0.566406 1.539062 -0.546875 1.5625 -0.515625 C 1.59375 -0.492188 1.617188 -0.46875 1.640625 -0.4375 C 1.660156 -0.40625 1.675781 -0.367188 1.6875 -0.328125 C 1.707031 -0.296875 1.71875 -0.265625 1.71875 -0.234375 C 1.632812 -0.148438 1.523438 -0.078125 1.390625 -0.015625 C 1.253906 0.0351562 1.113281 0.0625 0.96875 0.0625 C 0.695312 0.0625 0.484375 -0.0234375 0.328125 -0.203125 C 0.179688 -0.390625 0.109375 -0.648438 0.109375 -0.984375 C 0.109375 -1.148438 0.132812 -1.296875 0.1875 -1.421875 C 0.238281 -1.554688 0.300781 -1.664062 0.375 -1.75 C 0.457031 -1.832031 0.546875 -1.890625 0.640625 -1.921875 C 0.742188 -1.960938 0.851562 -1.984375 0.96875 -1.984375 C 1.082031 -1.984375 1.1875 -1.96875 1.28125 -1.9375 C 1.375 -1.914062 1.453125 -1.875 1.515625 -1.8125 C 1.585938 -1.757812 1.640625 -1.691406 1.671875 -1.609375 C 1.710938 -1.523438 1.734375 -1.4375 1.734375 -1.34375 C 1.734375 -1.238281 1.703125 -1.160156 1.640625 -1.109375 C 1.578125 -1.066406 1.5 -1.046875 1.40625 -1.046875 C 1.332031 -1.046875 1.265625 -1.054688 1.203125 -1.078125 Z M 1.203125 -1.078125 "/></g></g></g><g fill="#ffde59" fill-opacity="1"><g transform="translate(11.127526, 20.885355)"><g><path d="M 1.890625 -1.28125 L 1.890625 -0.484375 C 1.890625 -0.304688 1.921875 -0.175781 1.984375 -0.09375 C 1.878906 -0.0078125 1.757812 0.03125 1.625 0.03125 C 1.488281 0.03125 1.394531 0 1.34375 -0.0625 C 1.300781 -0.125 1.28125 -0.21875 1.28125 -0.34375 L 1.28125 -1.171875 C 1.28125 -1.253906 1.265625 -1.316406 1.234375 -1.359375 C 1.210938 -1.398438 1.171875 -1.421875 1.109375 -1.421875 C 1.066406 -1.421875 1.019531 -1.410156 0.96875 -1.390625 C 0.925781 -1.367188 0.878906 -1.335938 0.828125 -1.296875 L 0.828125 0 C 0.734375 0.0078125 0.632812 0.015625 0.53125 0.015625 C 0.414062 0.015625 0.316406 0.0078125 0.234375 0 L 0.234375 -2.828125 L 0.265625 -2.859375 L 0.484375 -2.859375 C 0.609375 -2.859375 0.695312 -2.828125 0.75 -2.765625 C 0.800781 -2.710938 0.828125 -2.617188 0.828125 -2.484375 L 0.828125 -1.75 C 0.992188 -1.894531 1.164062 -1.96875 1.34375 -1.96875 C 1.507812 -1.96875 1.640625 -1.90625 1.734375 -1.78125 C 1.835938 -1.65625 1.890625 -1.488281 1.890625 -1.28125 Z M 1.890625 -1.28125 "/></g></g></g><g fill="#ffde59" fill-opacity="1"><g transform="translate(13.228152, 20.885355)"><g/></g></g><g fill="#ffde59" fill-opacity="1"><g transform="translate(14.079234, 20.885355)"><g><path d="M 1.28125 -0.515625 L 1.9375 -0.515625 C 1.9375 -0.421875 1.929688 -0.332031 1.921875 -0.25 C 1.910156 -0.175781 1.867188 -0.113281 1.796875 -0.0625 C 1.734375 -0.0078125 1.644531 0.015625 1.53125 0.015625 L 0.65625 0.015625 C 0.539062 0.015625 0.453125 -0.015625 0.390625 -0.078125 C 0.328125 -0.148438 0.296875 -0.238281 0.296875 -0.34375 L 0.296875 -2.640625 L 0.3125 -2.671875 L 0.546875 -2.671875 C 0.785156 -2.671875 0.90625 -2.539062 0.90625 -2.28125 L 0.90625 -0.5 C 1.019531 -0.507812 1.144531 -0.515625 1.28125 -0.515625 Z M 1.28125 -0.515625 "/></g></g></g><g fill="#ffde59" fill-opacity="1"><g transform="translate(16.09862, 20.885355)"><g><path d="M 1.625 -1.765625 C 1.8125 -1.578125 1.90625 -1.3125 1.90625 -0.96875 C 1.90625 -0.8125 1.882812 -0.671875 1.84375 -0.546875 C 1.800781 -0.421875 1.742188 -0.3125 1.671875 -0.21875 C 1.597656 -0.125 1.503906 -0.0507812 1.390625 0 C 1.273438 0.0390625 1.144531 0.0625 1 0.0625 C 0.863281 0.0625 0.738281 0.0351562 0.625 -0.015625 C 0.519531 -0.0664062 0.425781 -0.132812 0.34375 -0.21875 C 0.269531 -0.3125 0.210938 -0.421875 0.171875 -0.546875 C 0.128906 -0.671875 0.109375 -0.8125 0.109375 -0.96875 C 0.109375 -1.125 0.128906 -1.265625 0.171875 -1.390625 C 0.210938 -1.515625 0.269531 -1.617188 0.34375 -1.703125 C 0.414062 -1.796875 0.507812 -1.863281 0.625 -1.90625 C 0.738281 -1.957031 0.863281 -1.984375 1 -1.984375 C 1.257812 -1.984375 1.46875 -1.910156 1.625 -1.765625 Z M 1.015625 -1.53125 C 0.953125 -1.53125 0.90625 -1.515625 0.875 -1.484375 C 0.84375 -1.460938 0.816406 -1.425781 0.796875 -1.375 C 0.773438 -1.332031 0.757812 -1.28125 0.75 -1.21875 C 0.738281 -1.164062 0.734375 -1.101562 0.734375 -1.03125 C 0.734375 -0.925781 0.734375 -0.832031 0.734375 -0.75 C 0.742188 -0.664062 0.757812 -0.597656 0.78125 -0.546875 C 0.800781 -0.492188 0.828125 -0.453125 0.859375 -0.421875 C 0.898438 -0.398438 0.945312 -0.390625 1 -0.390625 C 1.113281 -0.390625 1.1875 -0.4375 1.21875 -0.53125 C 1.257812 -0.632812 1.28125 -0.78125 1.28125 -0.96875 C 1.28125 -1.15625 1.257812 -1.296875 1.21875 -1.390625 C 1.1875 -1.484375 1.117188 -1.53125 1.015625 -1.53125 Z M 1.015625 -1.53125 "/></g></g></g><g fill="#ffde59" fill-opacity="1"><g transform="translate(18.118005, 20.885355)"><g><path d="M 0.96875 -0.46875 L 1.296875 -1.9375 C 1.367188 -1.945312 1.453125 -1.953125 1.546875 -1.953125 C 1.660156 -1.953125 1.757812 -1.9375 1.84375 -1.90625 L 1.859375 -1.875 C 1.585938 -0.914062 1.40625 -0.289062 1.3125 0 C 1.1875 0.0078125 1.050781 0.015625 0.90625 0.015625 C 0.757812 0.015625 0.65625 0 0.59375 -0.03125 C 0.53125 -0.0703125 0.484375 -0.148438 0.453125 -0.265625 L -0.015625 -1.890625 C 0.109375 -1.941406 0.21875 -1.96875 0.3125 -1.96875 C 0.414062 -1.96875 0.492188 -1.945312 0.546875 -1.90625 C 0.597656 -1.863281 0.640625 -1.789062 0.671875 -1.6875 L 0.84375 -0.96875 C 0.851562 -0.914062 0.878906 -0.753906 0.921875 -0.484375 C 0.929688 -0.472656 0.945312 -0.46875 0.96875 -0.46875 Z M 0.96875 -0.46875 "/></g></g></g><g fill="#ffde59" fill-opacity="1"><g transform="translate(19.974912, 20.885355)"><g><path d="M 1.734375 -0.765625 L 0.734375 -0.765625 C 0.734375 -0.648438 0.757812 -0.5625 0.8125 -0.5 C 0.875 -0.4375 0.960938 -0.40625 1.078125 -0.40625 C 1.140625 -0.40625 1.210938 -0.410156 1.296875 -0.421875 C 1.378906 -0.441406 1.472656 -0.472656 1.578125 -0.515625 C 1.660156 -0.429688 1.710938 -0.3125 1.734375 -0.15625 C 1.535156 -0.0078125 1.285156 0.0625 0.984375 0.0625 C 0.816406 0.0625 0.675781 0.0351562 0.5625 -0.015625 C 0.457031 -0.0664062 0.367188 -0.140625 0.296875 -0.234375 C 0.234375 -0.328125 0.1875 -0.4375 0.15625 -0.5625 C 0.125 -0.6875 0.109375 -0.828125 0.109375 -0.984375 C 0.109375 -1.128906 0.125 -1.257812 0.15625 -1.375 C 0.195312 -1.5 0.253906 -1.609375 0.328125 -1.703125 C 0.398438 -1.796875 0.488281 -1.863281 0.59375 -1.90625 C 0.707031 -1.957031 0.835938 -1.984375 0.984375 -1.984375 C 1.109375 -1.984375 1.21875 -1.960938 1.3125 -1.921875 C 1.414062 -1.890625 1.5 -1.835938 1.5625 -1.765625 C 1.632812 -1.691406 1.691406 -1.601562 1.734375 -1.5 C 1.773438 -1.394531 1.796875 -1.285156 1.796875 -1.171875 C 1.796875 -1.015625 1.773438 -0.878906 1.734375 -0.765625 Z M 0.71875 -1.1875 L 1.234375 -1.1875 L 1.234375 -1.234375 C 1.234375 -1.328125 1.210938 -1.40625 1.171875 -1.46875 C 1.128906 -1.53125 1.066406 -1.5625 0.984375 -1.5625 C 0.898438 -1.5625 0.835938 -1.53125 0.796875 -1.46875 C 0.753906 -1.414062 0.726562 -1.320312 0.71875 -1.1875 Z M 0.71875 -1.1875 "/></g></g></g><g fill="#ffde59" fill-opacity="1"><g transform="translate(21.897584, 20.885355)"><g/></g></g><g fill="#ffde59" fill-opacity="1"><g transform="translate(22.748666, 20.885355)"><g><path d="M 0.96875 -0.46875 L 1.296875 -1.9375 C 1.367188 -1.945312 1.453125 -1.953125 1.546875 -1.953125 C 1.660156 -1.953125 1.757812 -1.9375 1.84375 -1.90625 L 1.859375 -1.875 C 1.585938 -0.914062 1.40625 -0.289062 1.3125 0 C 1.1875 0.0078125 1.050781 0.015625 0.90625 0.015625 C 0.757812 0.015625 0.65625 0 0.59375 -0.03125 C 0.53125 -0.0703125 0.484375 -0.148438 0.453125 -0.265625 L -0.015625 -1.890625 C 0.109375 -1.941406 0.21875 -1.96875 0.3125 -1.96875 C 0.414062 -1.96875 0.492188 -1.945312 0.546875 -1.90625 C 0.597656 -1.863281 0.640625 -1.789062 0.671875 -1.6875 L 0.84375 -0.96875 C 0.851562 -0.914062 0.878906 -0.753906 0.921875 -0.484375 C 0.929688 -0.472656 0.945312 -0.46875 0.96875 -0.46875 Z M 0.96875 -0.46875 "/></g></g></g></svg>